<svg width="48" height="48" viewBox="0 0 48 48" fill="none" xmlns="http://www.w3.org/2000/svg">
<path d="M44.7999 24C44.7999 35.4875 35.4875 44.8 24 44.8C12.5124 44.8 3.19995 35.4875 3.19995 24C3.19995 12.5125 12.5124 3.20001 24 3.20001C35.4875 3.20001 44.7999 12.5125 44.7999 24Z" fill="white"/>
<path fill-rule="evenodd" clip-rule="evenodd" d="M24 41.8C33.8306 41.8 41.7999 33.8307 41.7999 24C41.7999 14.1693 33.8306 6.20001 24 6.20001C14.1693 6.20001 6.19995 14.1693 6.19995 24C6.19995 33.8307 14.1693 41.8 24 41.8ZM24 44.8C35.4875 44.8 44.7999 35.4875 44.7999 24C44.7999 12.5125 35.4875 3.20001 24 3.20001C12.5124 3.20001 3.19995 12.5125 3.19995 24C3.19995 35.4875 12.5124 44.8 24 44.8Z" fill="#1A1A1A"/>
<path d="M15.0398 30.16L24.6398 18.56H15.4507L16.7546 13.76H31.1859L31.162 17.8389L22.1417 29.4389H25.7598L24.4798 34.24H15.0398V30.16Z" fill="#1A1A1A"/>
<path d="M25.76 34.24L27.04 29.44H31.84L30.56 34.24H25.76Z" fill="#1A1A1A"/>
</svg>
